<svg width="1000" height="700" xmlns="http://www.w3.org/2000/svg">
  <!-- Background -->
  <rect width="1000" height="700" fill="white"/>
  
  <!-- System Boundary -->
  <rect x="300" y="80" width="650" height="550" fill="none" stroke="black" stroke-width="2" rx="10"/>
  <text x="500" y="70" font-family="Arial, sans-serif" font-size="14" font-weight="bold" text-anchor="middle">Online Diabetes Check and Treatment Recommendation System</text>
  
  <!-- Actor 1: End User -->
  <g id="enduser">
    <!-- Head -->
    <circle cx="80" cy="150" r="15" fill="none" stroke="black" stroke-width="2"/>
    <!-- Body -->
    <line x1="80" y1="165" x2="80" y2="220" stroke="black" stroke-width="2"/>
    <!-- Arms -->
    <line x1="80" y1="185" x2="60" y2="205" stroke="black" stroke-width="2"/>
    <line x1="80" y1="185" x2="100" y2="205" stroke="black" stroke-width="2"/>
    <!-- Legs -->
    <line x1="80" y1="220" x2="65" y2="250" stroke="black" stroke-width="2"/>
    <line x1="80" y1="220" x2="95" y2="250" stroke="black" stroke-width="2"/>
    <!-- Label -->
    <text x="80" y="270" font-family="Arial, sans-serif" font-size="12" text-anchor="middle" font-weight="bold">End User</text>
  </g>
  
  <!-- Actor 2: Healthcare Provider -->
  <g id="healthcare">
    <!-- Head -->
    <circle cx="80" cy="350" r="15" fill="none" stroke="black" stroke-width="2"/>
    <!-- Body -->
    <line x1="80" y1="365" x2="80" y2="420" stroke="black" stroke-width="2"/>
    <!-- Arms -->
    <line x1="80" y1="385" x2="60" y2="405" stroke="black" stroke-width="2"/>
    <line x1="80" y1="385" x2="100" y2="405" stroke="black" stroke-width="2"/>
    <!-- Legs -->
    <line x1="80" y1="420" x2="65" y2="450" stroke="black" stroke-width="2"/>
    <line x1="80" y1="420" x2="95" y2="450" stroke="black" stroke-width="2"/>
    <!-- Label -->
    <text x="80" y="470" font-family="Arial, sans-serif" font-size="12" text-anchor="middle" font-weight="bold">Healthcare</text>
    <text x="80" y="485" font-family="Arial, sans-serif" font-size="12" text-anchor="middle" font-weight="bold">Provider</text>
  </g>
  
  <!-- Actor 3: System Administrator -->
  <g id="admin">
    <!-- Head -->
    <circle cx="80" cy="550" r="15" fill="none" stroke="black" stroke-width="2"/>
    <!-- Body -->
    <line x1="80" y1="565" x2="80" y2="620" stroke="black" stroke-width="2"/>
    <!-- Arms -->
    <line x1="80" y1="585" x2="60" y2="605" stroke="black" stroke-width="2"/>
    <line x1="80" y1="585" x2="100" y2="605" stroke="black" stroke-width="2"/>
    <!-- Legs -->
    <line x1="80" y1="620" x2="65" y2="650" stroke="black" stroke-width="2"/>
    <line x1="80" y1="620" x2="95" y2="650" stroke="black" stroke-width="2"/>
    <!-- Label -->
    <text x="80" y="670" font-family="Arial, sans-serif" font-size="12" text-anchor="middle" font-weight="bold">System</text>
    <text x="80" y="685" font-family="Arial, sans-serif" font-size="12" text-anchor="middle" font-weight="bold">Administrator</text>
  </g>
  
  <!-- Primary Use Cases -->
  <ellipse cx="450" cy="150" rx="70" ry="25" fill="#87CEEB" stroke="#4682B4" stroke-width="2"/>
  <text x="450" y="155" font-family="Arial, sans-serif" font-size="11" text-anchor="middle" font-weight="bold">Assess Diabetes Risk</text>
  
  <ellipse cx="450" cy="250" rx="70" ry="25" fill="#87CEEB" stroke="#4682B4" stroke-width="2"/>
  <text x="450" y="250" font-family="Arial, sans-serif" font-size="11" text-anchor="middle" font-weight="bold">View Educational</text>
  <text x="450" y="265" font-family="Arial, sans-serif" font-size="11" text-anchor="middle" font-weight="bold">Content</text>
  
  <ellipse cx="450" cy="350" rx="70" ry="25" fill="#87CEEB" stroke="#4682B4" stroke-width="2"/>
  <text x="450" y="350" font-family="Arial, sans-serif" font-size="11" text-anchor="middle" font-weight="bold">Generate Health</text>
  <text x="450" y="365" font-family="Arial, sans-serif" font-size="11" text-anchor="middle" font-weight="bold">Report</text>
  
  <ellipse cx="450" cy="550" rx="60" ry="25" fill="#87CEEB" stroke="#4682B4" stroke-width="2"/>
  <text x="450" y="555" font-family="Arial, sans-serif" font-size="11" text-anchor="middle" font-weight="bold">Manage System</text>
  
  <!-- Include Use Cases -->
  <ellipse cx="650" cy="100" rx="60" ry="20" fill="#87CEEB" stroke="#4682B4" stroke-width="2"/>
  <text x="650" y="105" font-family="Arial, sans-serif" font-size="10" text-anchor="middle">Input Health Data</text>
  
  <ellipse cx="650" cy="140" rx="50" ry="20" fill="#87CEEB" stroke="#4682B4" stroke-width="2"/>
  <text x="650" y="145" font-family="Arial, sans-serif" font-size="10" text-anchor="middle">Validate Input</text>
  
  <ellipse cx="650" cy="180" rx="60" ry="20" fill="#87CEEB" stroke="#4682B4" stroke-width="2"/>
  <text x="650" y="180" font-family="Arial, sans-serif" font-size="10" text-anchor="middle">Apply Prediction</text>
  <text x="650" y="195" font-family="Arial, sans-serif" font-size="10" text-anchor="middle">Logic</text>
  
  <ellipse cx="650" cy="220" rx="50" ry="20" fill="#87CEEB" stroke="#4682B4" stroke-width="2"/>
  <text x="650" y="225" font-family="Arial, sans-serif" font-size="10" text-anchor="middle">Display Results</text>
  
  <!-- Extend Use Case -->
  <ellipse cx="650" cy="300" rx="50" ry="20" fill="#87CEEB" stroke="#4682B4" stroke-width="2"/>
  <text x="650" y="305" font-family="Arial, sans-serif" font-size="10" text-anchor="middle">Save Session</text>
  
  <!-- Association Lines (solid) -->
  <line x1="100" y1="190" x2="380" y2="150" stroke="black" stroke-width="2"/>
  <line x1="100" y1="220" x2="380" y2="250" stroke="black" stroke-width="2"/>
  <line x1="100" y1="380" x2="380" y2="350" stroke="black" stroke-width="2"/>
  <line x1="100" y1="250" x2="380" y2="350" stroke="black" stroke-width="2"/>
  <line x1="100" y1="580" x2="390" y2="550" stroke="black" stroke-width="2"/>
  
  <!-- Include Relationships (dashed arrows) -->
  <defs>
    <marker id="arrowhead" markerWidth="10" markerHeight="7" refX="9" refY="3.5" orient="auto">
      <polygon points="0 0, 10 3.5, 0 7" fill="black"/>
    </marker>
  </defs>
  
  <line x1="520" y1="140" x2="590" y2="110" stroke="black" stroke-width="1" stroke-dasharray="5,5" marker-end="url(#arrowhead)"/>
  <text x="555" y="120" font-family="Arial, sans-serif" font-size="9" text-anchor="middle">«include»</text>
  
  <line x1="520" y1="150" x2="600" y2="140" stroke="black" stroke-width="1" stroke-dasharray="5,5" marker-end="url(#arrowhead)"/>
  <text x="560" y="140" font-family="Arial, sans-serif" font-size="9" text-anchor="middle">«include»</text>
  
  <line x1="520" y1="160" x2="590" y2="180" stroke="black" stroke-width="1" stroke-dasharray="5,5" marker-end="url(#arrowhead)"/>
  <text x="555" y="175" font-family="Arial, sans-serif" font-size="9" text-anchor="middle">«include»</text>
  
  <line x1="520" y1="170" x2="600" y2="220" stroke="black" stroke-width="1" stroke-dasharray="5,5" marker-end="url(#arrowhead)"/>
  <text x="560" y="200" font-family="Arial, sans-serif" font-size="9" text-anchor="middle">«include»</text>
  
  <!-- Extend Relationship (dashed arrow) -->
  <line x1="600" y1="290" x2="500" y2="160" stroke="black" stroke-width="1" stroke-dasharray="5,5" marker-end="url(#arrowhead)"/>
  <text x="550" y="225" font-family="Arial, sans-serif" font-size="9" text-anchor="middle">«extend»</text>
</svg>
